<?xml version="1.0" standalone="no"?>
<!DOCTYPE svg PUBLIC "-//W3C//DTD SVG 20010904//EN"
 "http://www.w3.org/TR/2001/REC-SVG-20010904/DTD/svg10.dtd">
<svg version="1.0" xmlns="http://www.w3.org/2000/svg"
 width="729.000000pt" height="697.000000pt" viewBox="0 0 729.000000 697.000000"
 preserveAspectRatio="xMidYMid meet">

<g transform="translate(0.000000,697.000000) scale(0.100000,-0.100000)"
fill="#000000" stroke="none">
<path d="M3435 6650 c-147 -10 -479 -64 -535 -87 -8 -3 -22 -7 -30 -8 -109
-16 -645 -222 -582 -225 7 0 12 -13 12 -29 0 -17 5 -33 11 -37 8 -5 8 -8 0
-14 -9 -5 -9 -9 1 -17 9 -8 34 -1 88 25 342 160 829 270 1211 272 154 1 439
-16 514 -30 28 -5 68 -11 90 -14 80 -10 252 -48 335 -76 89 -29 173 -48 135
-31 l-20 10 20 1 c11 1 15 4 10 6 -6 2 -9 23 -7 45 3 22 0 45 -5 50 -15 15
-173 57 -179 48 -3 -5 -11 -9 -17 -9 -7 0 -6 4 3 10 14 9 7 14 -14 11 -4 -1
-14 3 -22 10 -8 6 -21 8 -30 5 -9 -4 -22 -2 -28 2 -32 25 -292 68 -491 82
-166 11 -304 11 -470 0z m1159 -136 c9 -3 13 -10 10 -15 -3 -5 -1 -9 5 -9 6 0
9 -20 8 -45 -2 -52 -22 -55 -22 -4 -1 45 -14 72 -32 65 -8 -3 -11 -1 -8 4 7
12 17 12 39 4z m-174 -50 c0 -2 -7 -4 -15 -4 -8 0 -15 4 -15 10 0 5 7 7 15 4
8 -4 15 -8 15 -10z m137 10 c-3 -3 -12 -4 -19 -1 -8 3 -5 6 6 6 11 1 17 -2 13
-5z m-67 -14 c-8 -5 -24 -9 -35 -9 l-20 0 20 9 c11 5 27 9 35 9 13 1 13 0 0
-9z m-2139 -109 c-11 -7 -10 -10 5 -13 10 -3 2 -5 -19 -4 -36 0 -36 1 -15 13
26 14 51 18 29 4z"/>
<path d="M4828 6433 c7 -3 16 -2 19 1 4 3 -2 6 -13 5 -11 0 -14 -3 -6 -6z"/>
<path d="M4765 6380 c3 -5 8 -10 11 -10 2 0 4 5 4 10 0 6 -5 10 -11 10 -5 0
-7 -4 -4 -10z"/>
<path d="M4875 6310 c-3 -6 1 -7 9 -4 18 7 21 14 7 14 -6 0 -13 -4 -16 -10z"/>
<path d="M2233 6289 c-2 -23 3 -25 10 -4 4 8 3 16 -1 19 -4 3 -9 -4 -9 -15z"/>
<path d="M2270 6250 c-8 -5 -12 -12 -9 -15 4 -3 12 1 19 10 14 17 11 19 -10 5z"/>
<path d="M2272 6215 c-17 -19 -1 -19 24 0 14 11 15 14 4 14 -8 0 -21 -6 -28
-14z"/>
<path d="M4535 5643 c-16 -3 -34 -9 -39 -14 -6 -5 -17 -9 -26 -9 -8 0 -32 -16
-53 -36 -63 -61 -80 -159 -40 -236 19 -38 71 -90 86 -85 6 2 17 -2 24 -9 20
-20 88 -27 130 -14 93 30 93 31 65 68 -15 19 -22 21 -47 13 -40 -13 -141 -21
-123 -10 9 6 9 9 1 9 -19 0 -62 48 -69 76 -11 43 2 110 25 133 40 40 109 53
167 30 24 -9 30 -7 46 13 19 25 24 43 9 34 -5 -3 -12 1 -15 10 -4 10 -14 14
-26 11 -11 -3 -18 -1 -14 4 3 5 -3 9 -13 9 -10 0 -27 2 -38 4 -11 2 -33 1 -50
-1z m72 -59 c-3 -3 -12 -4 -19 -1 -8 3 -5 6 6 6 11 1 17 -2 13 -5z m53 -289
c-7 -8 -20 -14 -29 -14 -13 1 -13 2 2 6 9 2 17 9 17 14 0 5 5 9 11 9 8 0 8 -5
-1 -15z m-13 -31 c-3 -3 -12 -4 -19 -1 -8 3 -5 6 6 6 11 1 17 -2 13 -5z"/>
<path d="M2520 5631 l-45 -7 58 -4 c41 -4 57 -2 57 8 0 6 -6 11 -12 10 -7 0
-33 -4 -58 -7z"/>
<path d="M2609 5636 c-2 -2 -4 -62 -4 -133 l1 -128 -12 85 c-7 47 -13 100 -13
118 -1 21 -6 32 -16 32 -8 0 -15 -5 -15 -11 0 -5 6 -7 13 -3 9 6 9 4 1 -7 -15
-20 -17 -272 -1 -266 6 2 15 14 19 28 5 17 7 11 5 -20 -2 -40 1 -46 23 -52 16
-5 -1 -8 -50 -9 -54 -1 -68 -4 -50 -10 25 -8 25 -8 -5 -11 -16 -1 2 -5 40 -8
l70 -6 -2 -35 c-1 -19 1 -29 3 -22 3 6 13 12 22 11 11 0 12 -2 5 -6 -21 -8
-15 -20 10 -19 20 1 22 6 25 69 l3 68 -28 -3 -28 -3 -1 168 c-2 156 -4 184
-15 173z m-42 -278 c-3 -8 -6 -5 -6 6 -1 11 2 17 5 13 3 -3 4 -12 1 -19z m40
-60 c-3 -8 -6 -5 -6 6 -1 11 2 17 5 13 3 -3 4 -12 1 -19z m29 -61 c1 -11 0
-12 -3 -3 -2 8 -21 17 -41 19 l-37 4 40 -1 c30 -1 40 -5 41 -19z"/>
<path d="M2906 5632 c-4 -7 -9 -279 -6 -375 0 -15 7 -18 38 -15 l37 3 1 85 2
85 37 3 c45 4 61 -14 70 -81 9 -65 30 -88 88 -94 l47 -6 0 41 c0 34 -4 41 -21
44 -15 2 -25 16 -36 48 -17 53 -36 70 -77 71 -30 1 -30 1 7 11 30 8 42 18 54
47 26 62 29 66 52 69 18 3 22 9 19 35 -3 29 -7 32 -38 35 -50 4 -72 -17 -95
-90 l-20 -63 -45 -3 -45 -3 2 73 c0 46 -3 76 -10 80 -16 10 -55 10 -61 0z"/>
<path d="M3348 5457 c-114 -237 -109 -217 -58 -217 39 0 42 2 58 40 l17 40 77
0 78 0 20 -40 c19 -37 24 -40 61 -40 37 0 40 2 34 22 -15 44 -180 372 -190
374 -5 2 -49 -79 -97 -179z m145 -69 c-5 -10 -87 -11 -96 -2 -3 4 5 27 18 53
14 25 25 53 26 61 0 8 13 -12 28 -45 16 -33 26 -63 24 -67z"/>
<path d="M3662 5549 c3 -90 3 -91 40 -125 32 -29 45 -34 85 -34 27 0 63 4 81
9 l32 10 0 -85 0 -84 40 0 40 0 0 201 0 200 -37 -3 -38 -3 -3 -75 c-2 -44 -8
-78 -15 -82 -22 -14 -114 -9 -127 7 -7 8 -15 47 -18 85 l-5 70 -39 0 -40 0 4
-91z"/>
<path d="M4072 5632 c-9 -7 -12 -53 -10 -198 l3 -189 120 0 120 0 3 33 3 32
-79 0 c-43 0 -81 2 -83 4 -2 2 -3 26 -1 53 l4 48 44 -4 c75 -5 94 4 94 45 l0
36 -70 -4 -70 -3 0 43 0 42 80 0 80 0 0 35 0 35 -112 0 c-62 0 -119 -4 -126
-8z"/>
<path d="M4755 5624 c-9 -9 -13 -19 -10 -22 3 -3 11 1 18 10 6 9 19 18 27 21
12 4 12 6 -2 6 -9 1 -24 -6 -33 -15z"/>
<path d="M4860 5630 c0 -5 5 -10 10 -10 6 0 10 5 10 10 0 6 -4 10 -10 10 -5 0
-10 -4 -10 -10z"/>
<path d="M2374 5617 c3 -10 7 -42 8 -70 l1 -52 7 65 c3 36 5 67 3 69 -2 2 -3
-2 -3 -10 0 -12 -2 -11 -11 1 -9 12 -10 12 -5 -3z"/>
<path d="M4767 5598 c-10 -11 -17 -22 -14 -24 7 -7 37 7 37 17 0 5 8 9 18 9
14 0 15 2 2 10 -19 13 -22 12 -43 -12z"/>
<path d="M2496 5593 c-4 -8 -2 -11 5 -7 6 4 15 0 20 -7 6 -10 9 -11 9 -1 0 6
1 15 3 19 1 3 -6 7 -15 9 -9 1 -19 -5 -22 -13z"/>
<path d="M2592 5590 c0 -14 2 -19 5 -12 2 6 2 18 0 25 -3 6 -5 1 -5 -13z"/>
<path d="M4870 5600 c0 -5 -13 -10 -29 -10 -17 0 -33 -5 -37 -12 -5 -8 0 -9
17 -5 13 4 42 7 64 8 24 1 31 4 17 6 -12 2 -20 9 -17 14 4 5 1 9 -4 9 -6 0
-11 -4 -11 -10z"/>
<path d="M4935 5600 c-3 -5 -1 -10 4 -10 6 0 11 5 11 10 0 6 -2 10 -4 10 -3 0
-8 -4 -11 -10z"/>
<path d="M5191 5584 c0 -11 3 -14 6 -6 3 7 2 16 -1 19 -3 4 -6 -2 -5 -13z"/>
<path d="M4869 5563 c9 -3 10 -7 4 -12 -6 -3 -12 -67 -15 -153 -3 -144 -3
-148 17 -148 23 0 32 35 13 46 -6 4 -8 3 -5 -2 6 -11 -9 -41 -17 -34 -3 3 -2
25 1 48 4 29 9 39 14 30 7 -10 9 -9 9 5 0 9 -5 17 -10 17 -7 0 -10 33 -8 92 3
89 4 92 28 99 14 4 18 8 10 8 -8 1 -24 3 -35 5 -11 2 -14 1 -6 -1z"/>
<path d="M2421 5544 c0 -11 3 -14 6 -6 3 7 2 16 -1 19 -3 4 -6 -2 -5 -13z"/>
<path d="M2443 5520 c0 -25 2 -35 4 -22 2 12 2 32 0 45 -2 12 -4 2 -4 -23z"/>
<path d="M2402 5515 c0 -16 2 -22 5 -12 2 9 2 23 0 30 -3 6 -5 -1 -5 -18z"/>
<path d="M4884 5525 c-3 -8 -2 -47 4 -87 l9 -73 2 88 c1 84 -3 104 -15 72z"/>
<path d="M4914 5430 c0 -58 1 -81 3 -52 2 28 2 76 0 105 -2 28 -3 5 -3 -53z"/>
<path d="M2421 5473 c-1 -6 -4 -20 -7 -30 -5 -17 -5 -17 6 0 6 10 9 23 6 30
-3 9 -5 9 -5 0z"/>
<path d="M5131 5454 c0 -11 3 -14 6 -6 3 7 2 16 -1 19 -3 4 -6 -2 -5 -13z"/>
<path d="M5198 5463 c7 -3 16 -2 19 1 4 3 -2 6 -13 5 -11 0 -14 -3 -6 -6z"/>
<path d="M2432 5400 c0 -14 2 -19 5 -12 2 6 2 18 0 25 -3 6 -5 1 -5 -13z"/>
<path d="M5128 5403 c7 -3 16 -2 19 1 4 3 -2 6 -13 5 -11 0 -14 -3 -6 -6z"/>
<path d="M2357 5355 c-24 -50 -20 -58 4 -12 11 22 19 41 17 43 -3 2 -12 -12
-21 -31z"/>
<path d="M2415 5356 c-14 -16 -17 -36 -6 -36 5 0 11 10 14 22 7 27 5 30 -8 14z"/>
<path d="M2200 5319 c0 -5 5 -7 10 -4 6 3 10 8 10 11 0 2 -4 4 -10 4 -5 0 -10
-5 -10 -11z"/>
<path d="M5128 5313 c7 -3 16 -2 19 1 4 3 -2 6 -13 5 -11 0 -14 -3 -6 -6z"/>
<path d="M2550 5302 c0 -5 -16 -8 -35 -7 -19 0 -35 -3 -35 -7 0 -4 22 -8 50
-8 40 0 48 3 44 15 -6 16 -24 21 -24 7z"/>
<path d="M2346 5292 c-3 -5 1 -9 9 -9 8 0 12 4 9 9 -3 4 -7 8 -9 8 -2 0 -6 -4
-9 -8z"/>
<path d="M4914 5275 c0 -14 4 -25 9 -25 10 0 9 38 -2 44 -5 3 -8 -5 -7 -19z"/>
<path d="M2150 5270 c-9 -6 -10 -10 -3 -10 6 0 15 5 18 10 8 12 4 12 -15 0z"/>
<path d="M2383 5263 c15 -2 39 -2 55 0 15 2 2 4 -28 4 -30 0 -43 -2 -27 -4z"/>
<path d="M2378 5243 c7 -3 16 -2 19 1 4 3 -2 6 -13 5 -11 0 -14 -3 -6 -6z"/>
<path d="M2346 5207 c3 -10 9 -15 12 -12 3 3 0 11 -7 18 -10 9 -11 8 -5 -6z"/>
<path d="M981 5201 c-9 -6 -12 -19 -8 -37 4 -24 3 -26 -7 -12 -11 15 -16 10
-46 -35 -19 -29 -59 -97 -90 -152 -459 -827 -525 -1840 -177 -2735 76 -197
286 -588 308 -575 4 3 9 -5 12 -17 4 -12 9 -19 12 -16 3 3 2 21 -4 39 -5 19
-10 28 -10 21 -1 -7 -6 -10 -12 -7 -6 5 -3 12 9 21 16 11 19 21 15 55 -4 28
-2 44 7 49 10 6 10 12 -2 29 -8 11 -17 18 -20 15 -3 -3 -9 0 -14 7 -5 8 -3 10
6 4 15 -9 20 -21 -68 158 -149 303 -235 570 -292 904 -48 279 -48 688 0 988
49 305 144 601 289 895 42 85 75 161 75 167 -1 7 2 10 7 7 12 -7 11 0 -3 31
-8 19 -9 28 0 37 8 8 9 6 6 -9 -3 -12 -1 -24 5 -27 7 -5 8 -1 5 9 -4 9 1 22
12 31 16 12 16 13 2 8 -16 -5 -17 1 -15 62 2 41 8 69 15 72 13 4 17 22 5 22
-5 0 -14 -4 -22 -9z m-10 -3402 c-5 -13 -10 -19 -10 -12 -1 15 10 45 15 40 3
-2 0 -15 -5 -28z"/>
<path d="M6694 4580 c8 -39 9 -201 1 -234 -5 -17 -4 -31 4 -35 7 -5 8 -17 2
-39 -6 -20 -6 -30 -1 -27 6 4 7 -6 4 -22 -3 -16 2 -58 11 -93 63 -242 94 -609
76 -903 -10 -170 -50 -444 -85 -592 -9 -37 -11 -64 -5 -69 5 -6 9 -19 8 -30 0
-21 0 -21 -10 -1 -7 16 -8 14 -5 -10 14 -94 16 -119 9 -108 -4 6 -8 -35 -8
-92 0 -126 6 -120 68 70 123 375 160 613 160 1015 -1 405 -43 672 -165 1035
-39 114 -79 198 -64 135z"/>
<path d="M4870 3259 c-96 -18 -674 -89 -811 -100 -91 -7 -255 -9 -449 -6 -286
6 -406 15 -730 56 -279 36 -326 42 -337 46 -7 2 -15 0 -18 -4 -3 -5 30 -24 72
-42 239 -100 298 -125 398 -166 61 -24 134 -56 163 -69 29 -13 55 -24 58 -24
6 0 182 -74 376 -157 l107 -46 103 43 c57 24 157 65 223 92 66 28 134 56 150
63 17 8 59 26 95 40 36 15 79 33 95 40 17 7 68 29 115 48 47 20 132 55 190 79
58 25 121 51 140 58 49 20 127 59 115 58 -5 0 -30 -4 -55 -9z"/>
<path d="M3520 2584 c-96 -86 -211 -188 -254 -228 -99 -89 -84 -75 -201 -181
-55 -49 -172 -155 -260 -235 -88 -80 -180 -163 -205 -185 -93 -84 -144 -137
-125 -131 10 4 290 97 621 207 l601 199 618 -205 c340 -113 619 -204 621 -203
1 2 -27 30 -64 62 -37 33 -112 100 -167 150 -139 128 -208 190 -305 276 -47
41 -114 102 -150 135 -36 33 -108 98 -160 145 -85 77 -277 251 -355 322 -16
16 -32 28 -35 28 -3 0 -84 -70 -180 -156z m277 -210 c48 -45 110 -101 138
-125 46 -41 97 -87 185 -167 19 -18 31 -32 25 -32 -5 0 -96 29 -202 64 -244
82 -244 83 -324 56 -35 -13 -91 -30 -124 -40 -33 -10 -100 -32 -148 -50 -83
-30 -122 -33 -86 -7 15 11 81 70 254 227 121 110 180 160 187 157 3 -1 46 -38
95 -83z"/>
<path d="M2284 605 c11 -8 25 -15 30 -16 6 -1 0 -5 -14 -9 l-25 -8 24 -1 c23
-1 24 -2 6 -15 -18 -13 -18 -13 1 -24 18 -10 17 -11 -5 -29 l-23 -18 84 -39
c267 -123 530 -199 878 -255 194 -31 585 -37 785 -11 167 22 365 59 375 70 5
4 19 7 73 13 19 1 22 12 7 22 -13 8 -3 25 13 24 8 0 8 -2 -1 -6 -10 -4 -9 -8
5 -18 10 -8 24 -10 33 -5 8 4 39 13 67 20 29 6 51 16 48 20 -3 5 3 6 12 4 16
-4 18 1 15 45 -4 48 -2 51 20 51 12 0 30 5 38 11 11 7 4 8 -25 4 -31 -5 -37
-4 -25 5 13 9 12 10 -5 6 -11 -3 -32 -8 -47 -12 -16 -3 -25 -11 -22 -16 4 -6
-1 -8 -14 -4 -11 4 -23 2 -27 -4 -3 -6 -11 -8 -16 -5 -5 4 -9 -2 -10 -12 0
-16 -1 -16 -8 1 -5 13 -10 16 -15 8 -3 -6 -34 -17 -68 -23 -46 -9 -57 -14 -42
-20 10 -4 -6 -6 -38 -4 -32 1 -56 -1 -53 -5 2 -4 -28 -10 -68 -13 -79 -7 -97
-10 -112 -18 -5 -3 -37 -6 -70 -8 -33 -1 -89 -6 -125 -10 -91 -11 -517 -5
-620 9 -133 18 -297 47 -385 69 -96 23 -311 88 -336 101 -9 5 -45 20 -80 34
-35 13 -107 42 -159 65 -52 22 -86 34 -76 26z m46 -125 c8 -5 11 -10 5 -10 -5
0 -17 5 -25 10 -8 5 -10 10 -5 10 6 0 17 -5 25 -10z m2330 -54 c0 -2 -7 -7
-16 -10 -8 -3 -12 -2 -9 4 6 10 25 14 25 6z m-171 -67 c-7 -4 -17 -5 -22 -2
-5 3 -3 9 4 14 7 4 17 5 22 2 5 -3 3 -9 -4 -14z m5 -29 c-6 -6 -15 -5 -24 1
-13 9 -12 10 3 5 9 -3 17 0 17 6 0 6 3 8 7 5 4 -4 2 -12 -3 -17z m102 -15
c-23 -17 -46 -20 -46 -5 0 5 7 7 15 4 8 -4 15 -1 15 5 0 6 8 11 18 11 15 -1
15 -2 -2 -15z"/>
<path d="M4860 516 c0 -2 7 -7 16 -10 8 -3 12 -2 9 4 -6 10 -25 14 -25 6z"/>
<path d="M4720 370 c0 -5 5 -10 11 -10 5 0 7 5 4 10 -3 6 -8 10 -11 10 -2 0
-4 -4 -4 -10z"/>
</g>
</svg>
